<svg xmlns="http://www.w3.org/2000/svg" viewBox="0 0 200 112">
<path d="M70 82c-15-4-24-18-24-34 0-20 17-31 34-31 17 0 34 11 34 29 0 16-9 31-24 36" fill="none" stroke="#FF2A2A" stroke-width="1.5" stroke-linecap="round" stroke-linejoin="round"/>
<path d="M68 88c8 1 18 1 26 0M71 93c6 1 14 1 20 0M75 98c4 1 8 1 12 0" fill="none" stroke="#FF2A2A" stroke-width="1.5" stroke-linecap="round" stroke-linejoin="round"/>
<path d="M74 56c4-10 12-10 16 0" fill="none" stroke="#FF2A2A" stroke-width="1.5" stroke-linecap="round" stroke-linejoin="round"/>
<path d="M95 45c30-15 65 0 65 25 0 25-25 35-45 32l-15 10 6-15c-15-8-18-35-11-52" fill="none" stroke="#FF2A2A" stroke-width="1.5" stroke-linecap="round" stroke-linejoin="round"/>
<path d="M35 40l-9-6M52 14l-4-8M85 12l2-9M115 25l7-7" fill="none" stroke="#FF2A2A" stroke-width="1.5" stroke-linecap="round" stroke-linejoin="round"/>
</svg>